<?xml version="1.0" encoding="UTF-8" standalone="no"?>
<svg
   xmlns:dc="http://purl.org/dc/elements/1.1/"
   xmlns:cc="http://creativecommons.org/ns#"
   xmlns:rdf="http://www.w3.org/1999/02/22-rdf-syntax-ns#"
   xmlns:svg="http://www.w3.org/2000/svg"
   xmlns="http://www.w3.org/2000/svg"
   xmlns:sodipodi="http://sodipodi.sourceforge.net/DTD/sodipodi-0.dtd"
   xmlns:inkscape="http://www.inkscape.org/namespaces/inkscape"
   height="24"
   viewBox="0 0 24 24"
   width="24"
   version="1.1"
   id="svg6"
   sodipodi:docname="aon-icon-bizkaia.svg"
   inkscape:version="1.0.1 (3bc2e813f5, 2020-09-07)">
  <metadata
     id="metadata12">
    <rdf:RDF>
      <cc:Work
         rdf:about="">
        <dc:format>image/svg+xml</dc:format>
        <dc:type
           rdf:resource="http://purl.org/dc/dcmitype/StillImage" />
        <dc:title></dc:title>
      </cc:Work>
    </rdf:RDF>
  </metadata>
  <defs
     id="defs10" />
  <sodipodi:namedview
     pagecolor="#ffffff"
     bordercolor="#666666"
     borderopacity="1"
     objecttolerance="10"
     gridtolerance="10"
     guidetolerance="10"
     inkscape:pageopacity="0"
     inkscape:pageshadow="2"
     inkscape:window-width="1920"
     inkscape:window-height="1016"
     id="namedview8"
     showgrid="false"
     inkscape:zoom="29"
     inkscape:cx="9.8103448"
     inkscape:cy="12"
     inkscape:window-x="0"
     inkscape:window-y="0"
     inkscape:window-maximized="1"
     inkscape:current-layer="svg6" />
  <path
     d="M0 0h24v24H0V0z"
     fill="none"
     id="path2" />
  <path
     fill="#d70004"
     d="m 15.700367,11.593037 c -0.43324,0.45242 -0.79126,0.82738 -0.9056,0.958261 -0.20458,0.22978 -0.50244,0.555839 -0.473081,0.83528 0.0248,0.08914 0.107561,0.2095 0.226381,0.27042 0.178999,0.0921 0.48292,0.02443 0.77472,-0.08988 0.455799,-0.14518 0.89358,-0.2674 1.06356,0.179 0.1384,0.35916 -0.24068,1.0331 -0.58966,1.79392 -1.696921,3.552861 -0.39342,6.026742 -0.11132,6.459962 -0.22264,-0.21058 -1.08614,-1.060521 -1.53818,-1.83828 -4.6792218,-8.716123 0.34074,-14.7676844 0.1557,-14.8075445 0.163219,0.1136001 -4.9876217,5.5585215 -1.301261,14.4690645 -0.599479,-0.31592 -1.2606,-0.61678 -1.95864,-0.93948 -0.69802,-0.323801 -1.3975407,-0.729581 -2.0248408,-1.186921 -1.3140605,-0.9665 -2.4250008,-2.582541 -2.0293607,-3.086501 0.2128801,-0.28018 0.4738601,-0.14402 0.7175601,0.01768 0.1865402,0.11058 0.3896203,0.19858 0.5205003,0.02558 C 8.347205,14.483596 8.1636649,14.183476 7.8372247,13.655816 7.4701646,13.019116 6.8947444,11.999176 6.5457644,10.656195 6.3584645,9.9273547 6.1688845,8.3489142 6.4727844,7.9840948 c 0.1940598,-0.2384403 0.6468599,-0.071081 0.77626,0.031239 0.10606,0.07672 0.2000801,0.2222401 0.2880601,0.3271803 0.11432,0.1225996 0.22792,0.2467 0.30688,0.3065001 0.2369601,0.1771401 0.4377803,0.1808996 0.5453403,0.036103 0.10756,-0.1421425 0.10756,-0.4776226 0.13236,-0.8969626 0.01206,-0.8405405 0.0587,-2.0537607 0.8115802,-3.100041 0.3189202,-0.4385201 0.74464,-0.5355402 1.02972,-0.3670601 0.10378,0.06128 0.22414,0.20382 0.34222,0.3471001 0.13164,0.18464 0.269281,0.4159401 0.530281,0.5728001 0.26326,0.15642 0.4197,0.02858 0.75968,-0.5080801 0.15346,-0.2388183 0.28958,-0.4531783 0.38362,-0.6592784 0.1256,-0.2591201 0.2264,-0.5303002 0.46334,-0.9142603 0.3881,-0.6269602 0.874,-0.9962603 1.1794,-0.8375403 0.127901,0.06654 0.127901,0.1763601 0.157941,0.3020002 0.02934,0.12448 0.03912,0.2771801 0.218099,0.3734601 0.204581,0.10906 0.54156,-0.12186 0.956781,-0.3892401 0.4874,-0.3418601 1.06658,-0.7525402 1.44868,-0.5577402 0.377601,0.1963 0.40466,0.7709602 0.2813,1.0060203 -0.09028,0.1775001 -0.22564,0.3712001 -0.35956,0.5599801 -0.12486,0.1654601 -0.22712,0.2963601 -0.2753,0.3843602 -0.1414,0.2610001 -0.11732,0.4663401 0.09626,0.5742802 0.07672,0.04062 0.21364,0.03648 0.3347,0.0643 0.161721,0.0068 0.327181,0.0188 0.45958,0.08352 0.18126,0.0959 0.443781,0.3031001 0.1843,0.8078203 -0.22942,0.4430201 -0.64912,0.7905202 -1.07634,1.1312601 -0.36856,0.29634 -0.72208,0.5607203 -0.89808,0.8781404 -0.14516,0.26212 -0.09928,0.6258001 0.288819,0.82626 0.163981,0.08798 0.423481,0.07294 0.694261,0.025197 0.30012,-0.035735 0.5739,-0.088 0.79578,0.02408 0.19332,0.09514 0.31668,0.2628801 0.33472,0.4960602 0.07372,0.2591198 -0.0316,0.54004 -0.22564,0.7799998 -0.25268,0.3584008 -1.0703,1.2286808 -1.73746,1.9014818"
     id="path2-3"
     style="stroke-width:0.02" />
</svg>
