<svg id="Capa_1" data-name="Capa 1" xmlns="http://www.w3.org/2000/svg" viewBox="0 0 500 500"><defs><style>.cls-1{fill:#002469;}.cls-2{fill:#fff;}</style></defs><circle class="cls-1" cx="250" cy="250" r="250"/><rect class="cls-2" x="100.96" y="125.67" width="19.44" height="248.66" rx="2.68"/><rect class="cls-2" x="240.28" y="215.57" width="19.44" height="298.08" rx="2.68" transform="translate(614.61 114.61) rotate(90)"/><path class="cls-2" d="M373.38,182.05l-7.7-10.61a3.18,3.18,0,0,0-4.42-.7l-97.51,70.85-40.23-22.12-.8-.44a3.07,3.07,0,0,0-1.65-.37,3.12,3.12,0,0,0-1.56.57l-.74.54-83.88,60.94a3.17,3.17,0,0,0-.7,4.42l7.7,10.6a3.18,3.18,0,0,0,4.42.7l76.18-55.34,40.62,22.32.65.36a3.15,3.15,0,0,0,3-.37l15.78-11.47,90.11-65.46A3.16,3.16,0,0,0,373.38,182.05Z"/></svg>