<svg id="Capa_1" data-name="Capa 1" xmlns="http://www.w3.org/2000/svg" viewBox="0 0 500 500"><defs><style>.cls-1{fill:#ea6d41;}.cls-2{fill:none;}.cls-3{fill:#fff;}</style></defs><circle class="cls-1" cx="250" cy="250" r="250"/><rect class="cls-2" x="61.79" y="68.79" width="376.43" height="376.43"/><path class="cls-3" d="M393.42,260.2a56.46,56.46,0,0,0,0-79.8l-48-48a56.46,56.46,0,0,0-79.8,0l-5.08,5.09,67.57,67.38a30.08,30.08,0,1,1-42.54,42.53l-56.46-56.46-85.64,85.63a15,15,0,0,0,21.27,21.27l71.33-71.33,10.73,10.73-71.33,71.33a15,15,0,0,0,21.27,21.27l71.33-71.33,10.73,10.72-71.34,71.34a15,15,0,0,0,21.27,21.26l71.33-71.33,10.73,10.73-71.33,71.33a15,15,0,0,0,21.27,21.27ZM106.58,180a56.46,56.46,0,0,0,0,79.8l16,16L228.73,169.67l67.19,67.19a15.33,15.33,0,0,0,21.46,0,15.12,15.12,0,0,0,0-21.27L234,132.4a56.46,56.46,0,0,0-79.8,0Z"/></svg>