<?xml version="1.0" encoding="UTF-8" standalone="no"?>
<svg
   xmlns:dc="http://purl.org/dc/elements/1.1/"
   xmlns:cc="http://creativecommons.org/ns#"
   xmlns:rdf="http://www.w3.org/1999/02/22-rdf-syntax-ns#"
   xmlns:svg="http://www.w3.org/2000/svg"
   xmlns="http://www.w3.org/2000/svg"
   xmlns:sodipodi="http://sodipodi.sourceforge.net/DTD/sodipodi-0.dtd"
   xmlns:inkscape="http://www.inkscape.org/namespaces/inkscape"
   inkscape:version="1.0 (4035a4fb49, 2020-05-01)"
   sodipodi:docname="aon-icon-excel.svg"
   id="svg6"
   viewBox="0 0 24 24"
   height="24"
   width="24"
   version="1.1">
  <metadata
     id="metadata12">
    <rdf:RDF>
      <cc:Work
         rdf:about="">
        <dc:format>image/svg+xml</dc:format>
        <dc:type
           rdf:resource="http://purl.org/dc/dcmitype/StillImage" />
        <dc:title />
      </cc:Work>
    </rdf:RDF>
  </metadata>
  <defs
     id="defs10" />
  <sodipodi:namedview
     inkscape:current-layer="svg6"
     inkscape:window-maximized="1"
     inkscape:window-y="0"
     inkscape:window-x="0"
     inkscape:cy="11.783823"
     inkscape:cx="5.3425057"
     inkscape:zoom="32.482718"
     showgrid="false"
     id="namedview8"
     inkscape:window-height="1016"
     inkscape:window-width="1920"
     inkscape:pageshadow="2"
     inkscape:pageopacity="0"
     guidetolerance="10"
     gridtolerance="10"
     objecttolerance="10"
     borderopacity="1"
     bordercolor="#666666"
     pagecolor="#ffffff"
     inkscape:document-rotation="0" />
  <path
     style="stroke-width:1.26028"
     id="path2"
     d="M 16.587038,9 H 13.900889 L 12,11.755 10.099111,9 H 7.4129606 L 10.632783,13.735 7,19 h 5 V 17.21125 H 11.003812 L 12,15.74625 14.212197,19 H 17 l -3.632783,-5.265 z"
     fill="#000000" />
  <path
     style="stroke-width:1.26772"
     id="path4"
     d="M 20.152713,6.47375 C 19.706571,5.8825 19.084287,5.19 18.401571,4.52625 17.718858,3.8625 17.006571,3.2575 16.398428,2.82375 15.362142,2.085 14.859429,2 14.571429,2 H 4.6071428 C 3.7212858,2 3,2.70125 3,3.5625 v 16.875 C 3,21.29875 3.7212858,22 4.6071428,22 H 19.392858 C 20.278713,22 21,21.29875 21,20.4375 V 8.25 C 21,7.97 20.912571,7.48125 20.152713,6.47375 Z m -2.661426,-1.0625 c 0.617141,0.6 1.100571,1.14 1.458,1.58875 H 15.855858 V 3.99375 c 0.46157,0.3475 1.018284,0.8175 1.634142,1.4175 v 0 z m 2.223,15.02625 c 0,0.17 -0.146574,0.3125 -0.321429,0.3125 H 4.6071428 c -0.1735715,0 -0.3214286,-0.1425 -0.3214286,-0.3125 V 3.5625 c 0,-0.16875 0.1478571,-0.3125 0.3214286,-0.3125 0,0 9.9629992,0 9.9642852,0 v 4.375 c 0,0.345 0.288,0.625 0.642859,0.625 h 4.5 z"
     fill="#000000" />
</svg>
